<svg height="512pt" viewBox="0 -67 512 512" width="512pt" xmlns="http://www.w3.org/2000/svg"><path d="m497 0h-482c-8.285156 0-15 6.714844-15 15v348.355469c0 8.285156 6.714844 15 15 15h482c8.285156 0 15-6.714844 15-15v-348.355469c0-8.285156-6.714844-15-15-15zm-433.054688 314.3125v-250.269531h384.109376v250.269531zm0 0"/><path d="m347.65625 149.074219c-16.523438-5.136719-34.363281.878906-44.394531 14.976562l-5.597657 7.863281-16.1875-14.304687c-3.214843-2.84375-7.492187-4.167969-11.753906-3.648437-4.261718.519531-8.09375 2.84375-10.527344 6.378906l-2.125 3.078125-2.480468-18.507813c-.832032-6.199218-5.425782-11.234375-11.527344-12.628906s-12.425781 1.148438-15.867188 6.375l-24.460937 37.144531c-5.597656-6.828125-13.488281-11.414062-22.371094-12.859375-10.910156-1.777344-21.898437 1.414063-30.160156 8.757813l-8.894531 7.90625c-6.191406 5.503906-6.75 14.984375-1.246094 21.175781s14.984375 6.75 21.175781 1.246094l8.894531-7.90625c2.027344-1.800782 4.261719-1.757813 5.414063-1.570313 1.148437.1875 3.277344.855469 4.632813 3.207031 4.546874 7.917969 12.714843 12.8125 21.84375 13.09375 9.113281.25 17.574218-4.113281 22.597656-11.738281l5.570312-8.457031 2.316406 17.269531c.820313 6.144531 5.34375 11.148438 11.371094 12.59375 6.027344 1.441407 12.328125-.972656 15.84375-6.078125l14.570313-21.144531 16 14.136719c3.1875 2.816406 7.421875 4.148437 11.644531 3.664062s8.042969-2.742187 10.507812-6.207031l15.257813-21.441406c2.496094-3.507813 6.9375-5.003907 11.042969-3.726563 4.175781 1.300782 6.980468 5.109375 6.980468 9.480469v3.304687c0 16.445313-8.792968 31.863282-22.949218 40.238282-7.128906 4.21875-9.488282 13.417968-5.269532 20.546875 2.800782 4.734375 7.796876 7.363281 12.925782 7.363281 2.59375 0 5.226562-.675781 7.621094-2.09375 23.238281-13.746094 37.671874-39.058594 37.671874-66.054688v-3.304687c0-17.585937-11.28125-32.90625-28.070312-38.128906zm0 0"/><path d="m173.046875 153.902344c8.285156 0 15-6.714844 15-15v-4.199219c0-8.28125-6.714844-15-15-15s-15 6.71875-15 15v4.199219c0 8.285156 6.714844 15 15 15zm0 0"/></svg>